# This file uses centimeters as units for non-parametric coordinates.

mtllib bowwww.mtl
g default
v 0.113166 -3.790185 1.033682
v 0.351122 -3.790185 1.033682
v 0.113166 -2.947922 1.033682
v 0.351122 -2.947922 1.033682
v 0.113166 -2.105658 0.207071
v 0.351122 -2.105658 0.207071
v 0.113166 -1.263395 -0.166951
v 0.351122 -1.263395 -0.166951
v 0.113166 -0.421132 -0.166951
v 0.351122 -0.421132 -0.166951
v 0.113166 0.421132 -0.166951
v 0.351122 0.421132 -0.166951
v 0.113166 1.263395 -0.166951
v 0.351122 1.263395 -0.166951
v 0.113166 2.105658 0.207071
v 0.351122 2.105658 0.207071
v 0.113166 2.947921 1.033682
v 0.351122 2.947921 1.033682
v 0.113166 3.790185 1.033682
v 0.351122 3.790185 1.033682
v 0.113166 3.790185 0.619540
v 0.351122 3.790185 0.619540
v 0.113166 2.947922 0.619540
v 0.351122 2.947922 0.619540
v 0.113166 2.105658 -0.207071
v 0.351122 2.105658 -0.207071
v 0.113166 1.263395 -0.581093
v 0.351122 1.263395 -0.581093
v 0.113166 0.421132 -0.581093
v 0.351122 0.421132 -0.581093
v 0.113166 -0.421132 -0.581093
v 0.351122 -0.421132 -0.581093
v 0.113166 -1.263395 -0.581093
v 0.351122 -1.263395 -0.581093
v 0.113166 -2.105658 -0.207071
v 0.351122 -2.105658 -0.207071
v 0.113166 -2.947921 0.619540
v 0.351122 -2.947921 0.619540
v 0.113166 -3.790185 0.619540
v 0.351122 -3.790185 0.619540
vt 0.375000 0.000000
vt 0.625000 0.000000
vt 0.375000 0.027778
vt 0.625000 0.027778
vt 0.375000 0.055556
vt 0.625000 0.055556
vt 0.375000 0.083333
vt 0.625000 0.083333
vt 0.375000 0.111111
vt 0.625000 0.111111
vt 0.375000 0.138889
vt 0.625000 0.138889
vt 0.375000 0.166667
vt 0.625000 0.166667
vt 0.375000 0.194444
vt 0.625000 0.194444
vt 0.375000 0.222222
vt 0.625000 0.222222
vt 0.375000 0.250000
vt 0.625000 0.250000
vt 0.375000 0.500000
vt 0.625000 0.500000
vt 0.375000 0.527778
vt 0.625000 0.527778
vt 0.375000 0.555556
vt 0.625000 0.555556
vt 0.375000 0.583333
vt 0.625000 0.583333
vt 0.375000 0.611111
vt 0.625000 0.611111
vt 0.375000 0.638889
vt 0.625000 0.638889
vt 0.375000 0.666667
vt 0.625000 0.666667
vt 0.375000 0.694445
vt 0.625000 0.694445
vt 0.375000 0.722222
vt 0.625000 0.722222
vt 0.375000 0.750000
vt 0.625000 0.750000
vt 0.375000 1.000000
vt 0.625000 1.000000
vt 0.875000 0.000000
vt 0.875000 0.027778
vt 0.875000 0.055556
vt 0.875000 0.083333
vt 0.875000 0.111111
vt 0.875000 0.138889
vt 0.875000 0.166667
vt 0.875000 0.194444
vt 0.875000 0.222222
vt 0.875000 0.250000
vt 0.125000 0.000000
vt 0.125000 0.027778
vt 0.125000 0.055556
vt 0.125000 0.083333
vt 0.125000 0.111111
vt 0.125000 0.138889
vt 0.125000 0.166667
vt 0.125000 0.194444
vt 0.125000 0.222222
vt 0.125000 0.250000
vn 0.000000 0.000000 1.000000
vn 0.000000 0.000000 1.000000
vn 0.000000 0.440528 0.897739
vn 0.000000 0.440528 0.897739
vn 0.000000 0.580405 0.814328
vn 0.000000 0.580405 0.814328
vn 0.000000 0.216755 0.976226
vn 0.000000 0.216755 0.976226
vn 0.000000 0.000000 1.000000
vn 0.000000 0.000000 1.000000
vn 0.000000 0.000000 1.000000
vn 0.000000 0.000000 1.000000
vn 0.000000 -0.216755 0.976226
vn 0.000000 -0.216755 0.976226
vn 0.000000 -0.580405 0.814328
vn 0.000000 -0.580405 0.814328
vn 0.000000 -0.440528 0.897739
vn 0.000000 -0.440528 0.897739
vn 0.000000 0.000000 1.000000
vn 0.000000 0.000000 1.000000
vn 0.000000 1.000000 0.000000
vn 0.000000 1.000000 0.000000
vn 0.000000 1.000000 0.000000
vn 0.000000 1.000000 0.000000
vn 0.000000 0.000000 -1.000000
vn 0.000000 0.000000 -1.000000
vn 0.000000 0.440528 -0.897739
vn 0.000000 0.440528 -0.897739
vn 0.000000 0.580406 -0.814328
vn 0.000000 0.580406 -0.814328
vn 0.000000 0.216755 -0.976226
vn 0.000000 0.216755 -0.976226
vn 0.000000 0.000000 -1.000000
vn 0.000000 0.000000 -1.000000
vn 0.000000 0.000000 -1.000000
vn 0.000000 0.000000 -1.000000
vn 0.000000 -0.216755 -0.976226
vn 0.000000 -0.216755 -0.976226
vn 0.000000 -0.580406 -0.814328
vn 0.000000 -0.580406 -0.814328
vn 0.000000 -0.440528 -0.897739
vn 0.000000 -0.440528 -0.897739
vn 0.000000 0.000000 -1.000000
vn 0.000000 0.000000 -1.000000
vn 0.000000 -1.000000 0.000000
vn 0.000000 -1.000000 0.000000
vn 0.000000 -1.000000 0.000000
vn 0.000000 -1.000000 0.000000
vn 1.000000 0.000000 0.000000
vn 1.000000 0.000000 0.000000
vn 1.000000 0.000000 0.000000
vn 1.000000 0.000000 0.000000
vn 1.000000 0.000000 0.000000
vn 1.000000 0.000000 0.000000
vn 1.000000 0.000000 0.000000
vn 1.000000 0.000000 0.000000
vn 1.000000 0.000000 0.000000
vn 1.000000 0.000000 0.000000
vn 1.000000 0.000000 0.000000
vn 1.000000 0.000000 0.000000
vn 1.000000 -0.000000 0.000000
vn 1.000000 -0.000000 0.000000
vn 1.000000 -0.000000 0.000000
vn 1.000000 -0.000000 0.000000
vn 1.000000 0.000000 0.000000
vn 1.000000 0.000000 0.000000
vn 1.000000 0.000000 0.000000
vn 1.000000 0.000000 0.000000
vn -1.000000 0.000000 0.000000
vn -1.000000 0.000000 0.000000
vn -1.000000 0.000000 0.000000
vn -1.000000 0.000000 0.000000
vn -1.000000 0.000000 0.000000
vn -1.000000 0.000000 0.000000
vn -1.000000 0.000000 0.000000
vn -1.000000 0.000000 0.000000
vn -1.000000 0.000000 0.000000
vn -1.000000 0.000000 0.000000
vn -1.000000 0.000000 0.000000
vn -1.000000 0.000000 0.000000
vn -1.000000 0.000000 0.000000
vn -1.000000 0.000000 0.000000
vn -1.000000 0.000000 0.000000
vn -1.000000 0.000000 0.000000
vn -1.000000 0.000000 0.000000
vn -1.000000 0.000000 0.000000
vn -1.000000 0.000000 0.000000
vn -1.000000 0.000000 0.000000
s 1
g pCube1
usemtl initialShadingGroup
f 1/1/1 2/2/2 4/4/3 3/3/4
f 3/3/4 4/4/3 6/6/5 5/5/6
f 5/5/6 6/6/5 8/8/7 7/7/8
f 7/7/8 8/8/7 10/10/9 9/9/10
f 9/9/10 10/10/9 12/12/11 11/11/12
f 11/11/12 12/12/11 14/14/13 13/13/14
f 13/13/14 14/14/13 16/16/15 15/15/16
f 15/15/16 16/16/15 18/18/17 17/17/18
f 17/17/18 18/18/17 20/20/19 19/19/20
s off
f 19/19/21 20/20/22 22/22/23 21/21/24
s 2
f 21/21/25 22/22/26 24/24/27 23/23/28
f 23/23/28 24/24/27 26/26/29 25/25/30
f 25/25/30 26/26/29 28/28/31 27/27/32
f 27/27/32 28/28/31 30/30/33 29/29/34
f 29/29/34 30/30/33 32/32/35 31/31/36
f 31/31/36 32/32/35 34/34/37 33/33/38
f 33/33/38 34/34/37 36/36/39 35/35/40
f 35/35/40 36/36/39 38/38/41 37/37/42
f 37/37/42 38/38/41 40/40/43 39/39/44
s off
f 39/39/45 40/40/46 2/42/47 1/41/48
s 3
f 2/2/49 40/43/50 38/44/51 4/4/52
f 4/4/52 38/44/51 36/45/53 6/6/54
f 6/6/54 36/45/53 34/46/55 8/8/56
f 8/8/56 34/46/55 32/47/57 10/10/58
f 10/10/58 32/47/57 30/48/59 12/12/60
f 12/12/60 30/48/59 28/49/61 14/14/62
f 14/14/62 28/49/61 26/50/63 16/16/64
f 16/16/64 26/50/63 24/51/65 18/18/66
f 18/18/66 24/51/65 22/52/67 20/20/68
s 4
f 39/53/69 1/1/70 3/3/71 37/54/72
f 37/54/72 3/3/71 5/5/73 35/55/74
f 35/55/74 5/5/73 7/7/75 33/56/76
f 33/56/76 7/7/75 9/9/77 31/57/78
f 31/57/78 9/9/77 11/11/79 29/58/80
f 29/58/80 11/11/79 13/13/81 27/59/82
f 27/59/82 13/13/81 15/15/83 25/60/84
f 25/60/84 15/15/83 17/17/85 23/61/86
f 23/61/86 17/17/85 19/19/87 21/62/88
g default
v 0.060314 -0.075631 2.889761
v -0.021526 -0.094311 2.889761
v -0.087156 -0.041972 2.889761
v -0.087156 0.041972 2.889761
v -0.021526 0.094311 2.889761
v 0.060314 0.075631 2.889761
v 0.096736 -0.000000 2.889761
v 0.060314 -0.075631 -2.889761
v -0.021526 -0.094311 -2.889761
v -0.087156 -0.041972 -2.889761
v -0.087156 0.041972 -2.889761
v -0.021526 0.094311 -2.889761
v 0.060314 0.075631 -2.889761
v 0.096736 0.000000 -2.889761
v 0.000000 -0.000000 2.889761
v 0.000000 0.000000 -2.889761
vt 0.597420 0.034089
vt 0.465231 0.003918
vt 0.359224 0.088456
vt 0.359224 0.224044
vt 0.465231 0.308582
vt 0.597420 0.278411
vt 0.656250 0.156250
vt 0.375000 0.312500
vt 0.410714 0.312500
vt 0.446429 0.312500
vt 0.482143 0.312500
vt 0.517857 0.312500
vt 0.553571 0.312500
vt 0.589286 0.312500
vt 0.625000 0.312500
vt 0.375000 0.688440
vt 0.410714 0.688440
vt 0.446429 0.688440
vt 0.482143 0.688440
vt 0.517857 0.688440
vt 0.553571 0.688440
vt 0.589286 0.688440
vt 0.625000 0.688440
vt 0.597420 0.721589
vt 0.465231 0.691418
vt 0.359224 0.775956
vt 0.359224 0.911544
vt 0.465231 0.996082
vt 0.597420 0.965911
vt 0.656250 0.843750
vt 0.500000 0.150000
vt 0.500000 0.837500
vn 0.222521 -0.974928 -0.000000
vn 0.222521 -0.974928 -0.000000
vn 0.222521 -0.974928 -0.000000
vn 0.222521 -0.974928 -0.000000
vn -0.623490 -0.781832 -0.000000
vn -0.623490 -0.781832 -0.000000
vn -0.623490 -0.781832 -0.000000
vn -0.623490 -0.781832 -0.000000
vn -1.000000 -0.000000 -0.000000
vn -1.000000 -0.000000 -0.000000
vn -1.000000 -0.000000 -0.000000
vn -1.000000 -0.000000 -0.000000
vn -0.623490 0.781831 0.000000
vn -0.623490 0.781831 0.000000
vn -0.623490 0.781831 0.000000
vn -0.623490 0.781831 0.000000
vn 0.222521 0.974928 0.000000
vn 0.222521 0.974928 0.000000
vn 0.222521 0.974928 0.000000
vn 0.222521 0.974928 0.000000
vn 0.900969 0.433884 0.000000
vn 0.900969 0.433884 0.000000
vn 0.900969 0.433884 0.000000
vn 0.900969 0.433884 0.000000
vn 0.900969 -0.433884 -0.000000
vn 0.900969 -0.433884 -0.000000
vn 0.900969 -0.433884 -0.000000
vn 0.900969 -0.433884 -0.000000
vn 0.000000 -0.000001 1.000000
vn 0.000000 -0.000001 1.000000
vn 0.000000 -0.000000 1.000000
vn 0.000000 -0.000000 1.000000
vn 0.000000 -0.000000 1.000000
vn 0.000000 -0.000000 1.000000
vn 0.000000 -0.000000 1.000000
vn 0.000000 -0.000000 1.000000
vn 0.000000 0.000000 -1.000000
vn 0.000000 0.000001 -1.000000
vn 0.000000 0.000000 -1.000000
vn 0.000000 0.000001 -1.000000
vn 0.000000 0.000000 -1.000000
vn 0.000000 0.000000 -1.000000
vn 0.000000 0.000000 -1.000000
vn 0.000000 0.000000 -1.000000
s off
g pCylinder1
usemtl initialShadingGroup
f 41/70/89 42/71/90 49/79/91 48/78/92
f 42/71/93 43/72/94 50/80/95 49/79/96
f 43/72/97 44/73/98 51/81/99 50/80/100
f 44/73/101 45/74/102 52/82/103 51/81/104
f 45/74/105 46/75/106 53/83/107 52/82/108
f 46/75/109 47/76/110 54/84/111 53/83/112
f 47/76/113 41/77/114 48/85/115 54/84/116
s 1
f 42/64/117 41/63/118 55/93/119
f 43/65/120 42/64/117 55/93/119
f 44/66/121 43/65/120 55/93/119
f 45/67/122 44/66/121 55/93/119
f 46/68/123 45/67/122 55/93/119
f 47/69/124 46/68/123 55/93/119
f 41/63/118 47/69/124 55/93/119
s 2
f 48/91/125 49/90/126 56/94/127
f 49/90/126 50/89/128 56/94/127
f 50/89/128 51/88/129 56/94/127
f 51/88/129 52/87/130 56/94/127
f 52/87/130 53/86/131 56/94/127
f 53/86/131 54/92/132 56/94/127
f 54/92/132 48/91/125 56/94/127
g default
v 0.090386 -0.310389 -2.880516
v -0.090386 -0.310389 -2.880516
v -0.180771 -0.000000 -2.880516
v -0.090386 0.310389 -2.880516
v 0.090386 0.310389 -2.880516
v 0.180771 -0.000000 -2.880516
v 0.000000 -0.000000 -3.597328
vt 0.625000 0.033494
vt 0.375000 0.033494
vt 0.250000 0.250000
vt 0.375000 0.466506
vt 0.625000 0.466506
vt 0.750000 0.250000
vt 0.250000 0.500000
vt 0.333333 0.500000
vt 0.416667 0.500000
vt 0.500000 0.500000
vt 0.583333 0.500000
vt 0.666667 0.500000
vt 0.750000 0.500000
vt 0.500000 1.000000
vn 0.000000 -0.000000 1.000000
vn 0.000000 -0.000000 1.000000
vn 0.000000 -0.000000 1.000000
vn 0.000000 -0.000000 1.000000
vn 0.000000 -0.000000 1.000000
vn 0.000000 -0.000000 1.000000
vn 0.000000 -0.917663 -0.397360
vn 0.000000 -0.917663 -0.397360
vn 0.000000 -0.917663 -0.397360
vn -0.933155 -0.271737 -0.235331
vn -0.933155 -0.271737 -0.235331
vn -0.933155 -0.271736 -0.235331
vn -0.933155 0.271736 -0.235331
vn -0.933155 0.271736 -0.235331
vn -0.933155 0.271736 -0.235331
vn -0.000000 0.917663 -0.397360
vn -0.000000 0.917663 -0.397360
vn -0.000000 0.917663 -0.397360
vn 0.933155 0.271736 -0.235331
vn 0.933155 0.271736 -0.235331
vn 0.933155 0.271736 -0.235331
vn 0.933155 -0.271736 -0.235331
vn 0.933155 -0.271736 -0.235331
vn 0.933155 -0.271736 -0.235331
s off
g pCone1
usemtl initialShadingGroup
f 57/95/133 62/100/134 61/99/135 60/98/136 59/97/137 58/96/138
f 57/101/139 58/102/140 63/108/141
f 58/102/142 59/103/143 63/108/144
f 59/103/145 60/104/146 63/108/147
f 60/104/148 61/105/149 63/108/150
f 61/105/151 62/106/152 63/108/153
f 62/106/154 57/107/155 63/108/156
g default
v 0.262928 -3.552382 0.962755
v 0.260993 -3.552382 0.958957
v 0.257978 -3.552382 0.955942
v 0.254179 -3.552382 0.954006
v 0.249968 -3.552382 0.953339
v 0.245757 -3.552382 0.954006
v 0.241958 -3.552382 0.955942
v 0.238944 -3.552382 0.958957
v 0.237008 -3.552382 0.962755
v 0.236341 -3.552382 0.966966
v 0.237008 -3.552382 0.971177
v 0.238944 -3.552382 0.974976
v 0.241958 -3.552382 0.977991
v 0.245757 -3.552382 0.979926
v 0.249968 -3.552382 0.980593
v 0.254179 -3.552382 0.979926
v 0.257978 -3.552382 0.977991
v 0.260993 -3.552382 0.974976
v 0.262928 -3.552382 0.971177
v 0.263595 -3.552382 0.966966
v 0.262928 3.552382 0.962755
v 0.260993 3.552382 0.958957
v 0.257978 3.552382 0.955942
v 0.254179 3.552382 0.954006
v 0.249968 3.552382 0.953339
v 0.245757 3.552382 0.954006
v 0.241958 3.552382 0.955942
v 0.238944 3.552382 0.958957
v 0.237008 3.552382 0.962755
v 0.236341 3.552382 0.966966
v 0.237008 3.552382 0.971177
v 0.238944 3.552382 0.974976
v 0.241958 3.552382 0.977991
v 0.245757 3.552382 0.979926
v 0.249968 3.552382 0.980593
v 0.254179 3.552382 0.979926
v 0.257978 3.552382 0.977991
v 0.260993 3.552382 0.974976
v 0.262928 3.552382 0.971177
v 0.263595 3.552382 0.966966
v 0.249968 -3.552382 0.966966
v 0.249968 3.552382 0.966966
vt 0.648603 0.107966
vt 0.626409 0.064408
vt 0.591842 0.029841
vt 0.548284 0.007647
vt 0.500000 -0.000000
vt 0.451716 0.007647
vt 0.408159 0.029841
vt 0.373591 0.064409
vt 0.351397 0.107966
vt 0.343750 0.156250
vt 0.351397 0.204534
vt 0.373591 0.248091
vt 0.408159 0.282659
vt 0.451716 0.304853
vt 0.500000 0.312500
vt 0.548284 0.304853
vt 0.591841 0.282659
vt 0.626409 0.248091
vt 0.648603 0.204534
vt 0.656250 0.156250
vt 0.375000 0.312500
vt 0.387500 0.312500
vt 0.400000 0.312500
vt 0.412500 0.312500
vt 0.425000 0.312500
vt 0.437500 0.312500
vt 0.450000 0.312500
vt 0.462500 0.312500
vt 0.475000 0.312500
vt 0.487500 0.312500
vt 0.500000 0.312500
vt 0.512500 0.312500
vt 0.525000 0.312500
vt 0.537500 0.312500
vt 0.550000 0.312500
vt 0.562500 0.312500
vt 0.575000 0.312500
vt 0.587500 0.312500
vt 0.600000 0.312500
vt 0.612500 0.312500
vt 0.625000 0.312500
vt 0.375000 0.688440
vt 0.387500 0.688440
vt 0.400000 0.688440
vt 0.412500 0.688440
vt 0.425000 0.688440
vt 0.437500 0.688440
vt 0.450000 0.688440
vt 0.462500 0.688440
vt 0.475000 0.688440
vt 0.487500 0.688440
vt 0.500000 0.688440
vt 0.512500 0.688440
vt 0.525000 0.688440
vt 0.537500 0.688440
vt 0.550000 0.688440
vt 0.562500 0.688440
vt 0.575000 0.688440
vt 0.587500 0.688440
vt 0.600000 0.688440
vt 0.612500 0.688440
vt 0.625000 0.688440
vt 0.648603 0.795466
vt 0.626409 0.751908
vt 0.591842 0.717341
vt 0.548284 0.695147
vt 0.500000 0.687500
vt 0.451716 0.695147
vt 0.408159 0.717341
vt 0.373591 0.751909
vt 0.351397 0.795466
vt 0.343750 0.843750
vt 0.351397 0.892034
vt 0.373591 0.935591
vt 0.408159 0.970159
vt 0.451716 0.992353
vt 0.500000 1.000000
vt 0.548284 0.992353
vt 0.591841 0.970159
vt 0.626409 0.935591
vt 0.648603 0.892034
vt 0.656250 0.843750
vt 0.500000 0.150000
vt 0.500000 0.837500
vn 0.951057 0.000000 -0.309016
vn 0.809017 0.000000 -0.587785
vn 0.809017 0.000000 -0.587785
vn 0.951057 0.000000 -0.309016
vn 0.587785 0.000000 -0.809017
vn 0.587785 0.000000 -0.809017
vn 0.309017 0.000000 -0.951057
vn 0.309017 0.000000 -0.951057
vn -0.000000 0.000000 -1.000000
vn -0.000000 0.000000 -1.000000
vn -0.309017 0.000000 -0.951056
vn -0.309017 0.000000 -0.951056
vn -0.587785 0.000000 -0.809017
vn -0.587785 0.000000 -0.809017
vn -0.809017 0.000000 -0.587785
vn -0.809017 0.000000 -0.587785
vn -0.951057 0.000000 -0.309017
vn -0.951057 0.000000 -0.309017
vn -1.000000 0.000000 0.000000
vn -1.000000 0.000000 0.000000
vn -0.951056 0.000000 0.309017
vn -0.951056 0.000000 0.309017
vn -0.809017 0.000000 0.587785
vn -0.809017 0.000000 0.587785
vn -0.587785 0.000000 0.809017
vn -0.587785 0.000000 0.809017
vn -0.309017 0.000000 0.951057
vn -0.309017 0.000000 0.951057
vn 0.000000 0.000000 1.000000
vn 0.000000 0.000000 1.000000
vn 0.309017 0.000000 0.951056
vn 0.309017 0.000000 0.951056
vn 0.587785 0.000000 0.809017
vn 0.587785 0.000000 0.809017
vn 0.809017 0.000000 0.587785
vn 0.809017 0.000000 0.587785
vn 0.951057 0.000000 0.309017
vn 0.951057 0.000000 0.309017
vn 1.000000 0.000000 0.000001
vn 1.000000 0.000000 0.000001
vn 0.000000 -1.000000 0.000000
vn 0.000000 -1.000000 0.000000
vn 0.000000 -1.000000 0.000000
vn 0.000000 -1.000000 0.000000
vn 0.000000 -1.000000 0.000000
vn 0.000000 -1.000000 0.000000
vn 0.000000 -1.000000 0.000000
vn 0.000000 -1.000000 0.000000
vn 0.000000 -1.000000 0.000000
vn 0.000000 -1.000000 0.000000
vn 0.000000 -1.000000 0.000000
vn 0.000000 -1.000000 0.000000
vn 0.000000 -1.000000 0.000000
vn 0.000000 -1.000000 0.000000
vn 0.000000 -1.000000 0.000000
vn 0.000000 -1.000000 0.000000
vn 0.000000 -1.000000 0.000000
vn 0.000000 -1.000000 0.000000
vn 0.000000 -1.000000 0.000000
vn 0.000000 -1.000000 0.000000
vn 0.000000 -1.000000 0.000000
vn 0.000000 1.000000 0.000000
vn 0.000000 1.000000 0.000000
vn 0.000000 1.000000 0.000000
vn 0.000000 1.000000 0.000000
vn 0.000000 1.000000 0.000000
vn 0.000000 1.000000 0.000000
vn 0.000000 1.000000 0.000000
vn 0.000000 1.000000 0.000000
vn 0.000000 1.000000 0.000000
vn 0.000000 1.000000 0.000000
vn 0.000000 1.000000 0.000000
vn 0.000000 1.000000 0.000000
vn 0.000000 1.000000 0.000000
vn 0.000000 1.000000 0.000000
vn 0.000000 1.000000 0.000000
vn 0.000000 1.000000 0.000000
vn 0.000000 1.000000 0.000000
vn 0.000000 1.000000 0.000000
vn 0.000000 1.000000 0.000000
vn 0.000000 1.000000 0.000000
vn 0.000000 1.000000 0.000000
s 1
g pCylinder2
usemtl initialShadingGroup
f 64/129/157 65/130/158 85/151/159 84/150/160
f 65/130/158 66/131/161 86/152/162 85/151/159
f 66/131/161 67/132/163 87/153/164 86/152/162
f 67/132/163 68/133/165 88/154/166 87/153/164
f 68/133/165 69/134/167 89/155/168 88/154/166
f 69/134/167 70/135/169 90/156/170 89/155/168
f 70/135/169 71/136/171 91/157/172 90/156/170
f 71/136/171 72/137/173 92/158/174 91/157/172
f 72/137/173 73/138/175 93/159/176 92/158/174
f 73/138/175 74/139/177 94/160/178 93/159/176
f 74/139/177 75/140/179 95/161/180 94/160/178
f 75/140/179 76/141/181 96/162/182 95/161/180
f 76/141/181 77/142/183 97/163/184 96/162/182
f 77/142/183 78/143/185 98/164/186 97/163/184
f 78/143/185 79/144/187 99/165/188 98/164/186
f 79/144/187 80/145/189 100/166/190 99/165/188
f 80/145/189 81/146/191 101/167/192 100/166/190
f 81/146/191 82/147/193 102/168/194 101/167/192
f 82/147/193 83/148/195 103/169/196 102/168/194
f 83/148/195 64/149/157 84/170/160 103/169/196
s 2
f 65/110/197 64/109/198 104/191/199
f 66/111/200 65/110/197 104/191/199
f 67/112/201 66/111/200 104/191/199
f 68/113/202 67/112/201 104/191/199
f 69/114/203 68/113/202 104/191/199
f 70/115/204 69/114/203 104/191/199
f 71/116/205 70/115/204 104/191/199
f 72/117/206 71/116/205 104/191/199
f 73/118/207 72/117/206 104/191/199
f 74/119/208 73/118/207 104/191/199
f 75/120/209 74/119/208 104/191/199
f 76/121/210 75/120/209 104/191/199
f 77/122/211 76/121/210 104/191/199
f 78/123/212 77/122/211 104/191/199
f 79/124/213 78/123/212 104/191/199
f 80/125/214 79/124/213 104/191/199
f 81/126/215 80/125/214 104/191/199
f 82/127/216 81/126/215 104/191/199
f 83/128/217 82/127/216 104/191/199
f 64/109/198 83/128/217 104/191/199
s 3
f 84/189/218 85/188/219 105/192/220
f 85/188/219 86/187/221 105/192/220
f 86/187/221 87/186/222 105/192/220
f 87/186/222 88/185/223 105/192/220
f 88/185/223 89/184/224 105/192/220
f 89/184/224 90/183/225 105/192/220
f 90/183/225 91/182/226 105/192/220
f 91/182/226 92/181/227 105/192/220
f 92/181/227 93/180/228 105/192/220
f 93/180/228 94/179/229 105/192/220
f 94/179/229 95/178/230 105/192/220
f 95/178/230 96/177/231 105/192/220
f 96/177/231 97/176/232 105/192/220
f 97/176/232 98/175/233 105/192/220
f 98/175/233 99/174/234 105/192/220
f 99/174/234 100/173/235 105/192/220
f 100/173/235 101/172/236 105/192/220
f 101/172/236 102/171/237 105/192/220
f 102/171/237 103/190/238 105/192/220
f 103/190/238 84/189/218 105/192/220
